<svg width="48" height="48" viewBox="0 0 48 48" fill="none" xmlns="http://www.w3.org/2000/svg">
<path d="M17.1745 16.472L22.3705 6.00801C22.5217 5.70518 22.7544 5.45047 23.0423 5.27244C23.3302 5.09442 23.662 5.00012 24.0005 5.00012C24.339 5.00012 24.6708 5.09442 24.9587 5.27244C25.2466 5.45047 25.4792 5.70518 25.6305 6.00801L30.8265 16.472L42.4425 18.16C42.7775 18.2065 43.0928 18.3462 43.3522 18.5632C43.6117 18.7803 43.8049 19.0659 43.9098 19.3875C44.0147 19.709 44.027 20.0536 43.9455 20.3819C43.8639 20.7102 43.6917 21.0089 43.4485 21.244L35.0445 29.384L37.0285 40.884C37.2825 42.36 35.7225 43.484 34.3885 42.788L24.0005 37.356L13.6105 42.788C12.2785 43.486 10.7185 42.36 10.9725 40.882L12.9565 29.382L4.55248 21.242C4.31045 21.0068 4.13927 20.7083 4.0584 20.3806C3.97754 20.0529 3.99022 19.7091 4.09501 19.3883C4.19981 19.0675 4.39251 18.7824 4.65121 18.5657C4.90992 18.3489 5.22425 18.209 5.55848 18.162L17.1745 16.472Z" fill="#D036AE" stroke="#D036AE" stroke-width="1.5" stroke-linecap="round" stroke-linejoin="round"/>
</svg>
